STARTFONT 2.1
COMMENT
COMMENT Converted from OpenType font "weather-icons.ttf" by "otf2bdf 3.0".
COMMENT
FONT -FreeType-artill clean weather icons-Medium-R-Normal--50-480-75-75-P-241-ISO10646-1
SIZE 48 75 75
FONTBOUNDINGBOX 50 42 0 -13
STARTPROPERTIES 19
FOUNDRY "FreeType"
FAMILY_NAME "artill clean weather icons"
WEIGHT_NAME "Medium"
SLANT "R"
SETWIDTH_NAME "Normal"
ADD_STYLE_NAME ""
PIXEL_SIZE 50
POINT_SIZE 480
RESOLUTION_X 75
RESOLUTION_Y 75
SPACING "P"
AVERAGE_WIDTH 241
CHARSET_REGISTRY "ISO10646"
CHARSET_ENCODING "1"
FONT_ASCENT 35
FONT_DESCENT 14
COPYRIGHT "Copyright © 2013 by Lukas Bischoff. All rights reserved."
_OTF_FONTFILE "weather-icons.ttf"
_OTF_PSNAME "artillcleanweathericons-Regular"
ENDPROPERTIES
CHARS 110
STARTCHAR 0000
ENCODING 0
SWIDTH 1000 0
DWIDTH 50 0
BBX 0 0 0 0
BITMAP
ENDCHAR
STARTCHAR 000D
ENCODING 13
SWIDTH 1000 0
DWIDTH 50 0
BBX 0 0 0 0
BITMAP
ENDCHAR
STARTCHAR 0020
ENCODING 32
SWIDTH 600 0
DWIDTH 30 0
BBX 0 0 0 0
BITMAP
ENDCHAR
STARTCHAR 0021
ENCODING 33
SWIDTH 800 0
DWIDTH 40 0
BBX 34 28 3 0
BITMAP
000000F000
000003F800
000007F800
0003EF3800
000FFE3800
001C1C1800
00380E1C00
0070061E00
0060030F80
00E0030780
01E003F380
03E003FF00
0700001E00
0E00000E00
1C00000700
0000000000
0000000000
1FFFFFFE00
1FFFFFFE00
0000000000
0000000000
FFFFFFF000
FFFFFFF000
0000000000
0000000000
0000000000
03FFFFFFC0
03FFFFFFC0
ENDCHAR
STARTCHAR 0022
ENCODING 34
SWIDTH 520 0
DWIDTH 26 0
BBX 22 22 2 0
BITMAP
00FC00
03FF80
0F03C0
1E00E0
180070
381030
701038
603018
60381C
603C1C
E07F1C
E07E0C
60F81C
60E01C
608018
700038
380030
180070
1E00E0
0F03C0
03FF80
00FC00
ENDCHAR
STARTCHAR 0023
ENCODING 35
SWIDTH 520 0
DWIDTH 26 0
BBX 22 22 2 0
BITMAP
00FC00
03FF80
0F03C0
1E00E0
180070
380038
701038
603018
60301C
60381C
E0780C
E07C0C
60FC1C
60FC1C
708618
700038
380038
180070
1E00E0
0F03C0
03FF80
00FE00
ENDCHAR
STARTCHAR 0027
ENCODING 39
SWIDTH 520 0
DWIDTH 26 0
BBX 22 22 2 0
BITMAP
00FC00
03FF80
0F03C0
1E00E0
180070
380038
700038
600218
600E1C
607C1C
E1FC0C
E1FC0C
607C1C
600E1C
700218
700038
380038
180070
1E00E0
0F03C0
03FF80
00FE00
ENDCHAR
STARTCHAR 0028
ENCODING 40
SWIDTH 400 0
DWIDTH 20 0
BBX 14 9 3 4
BITMAP
1800
3800
7000
FFFC
FFFC
7000
3800
1800
0800
ENDCHAR
STARTCHAR 0029
ENCODING 41
SWIDTH 400 0
DWIDTH 20 0
BBX 14 10 3 3
BITMAP
0040
00E0
0070
0038
FFFC
FFFC
0038
0070
00E0
0040
ENDCHAR
STARTCHAR 002A
ENCODING 42
SWIDTH 680 0
DWIDTH 34 0
BBX 29 20 2 0
BITMAP
001F8000
007FE000
00F0F000
01C03800
03801800
03001C00
07020F80
1F070FE0
380380F0
700FC030
601FC038
603F8018
E0370018
E0760018
60703018
60703838
70703030
383870F0
1E1FE3E0
060F8380
ENDCHAR
STARTCHAR 002C
ENCODING 44
SWIDTH 740 0
DWIDTH 37 0
BBX 31 16 3 2
BITMAP
00000078
000000FC
0000004E
00000006
0000000E
FFFFFFFC
FFFFFFF8
00000000
00000000
FFFFFC00
FFFFFE00
00000700
00000300
00006700
00007E00
00003C00
ENDCHAR
STARTCHAR 002E
ENCODING 46
SWIDTH 520 0
DWIDTH 26 0
BBX 22 22 2 0
BITMAP
00FC00
03FF80
0F03C0
1E00E0
180070
380030
700038
600218
600C1C
607C1C
E1FC1C
E3F80C
60F81C
60301C
603018
703038
380030
180070
1E00E0
0F03C0
03FF80
00FC00
ENDCHAR
STARTCHAR 002F
ENCODING 47
SWIDTH 680 0
DWIDTH 34 0
BBX 29 20 2 0
BITMAP
001F8000
007FC000
00F0F000
01C07000
01803800
03801C00
03001C00
07000F80
1F000FE0
380000F0
70000038
60000018
60000018
E0000018
60000018
60000038
70000038
38000070
1E0003E0
06000380
ENDCHAR
STARTCHAR 0030
ENCODING 48
SWIDTH 640 0
DWIDTH 32 0
BBX 26 17 3 1
BITMAP
000C0000
000C0000
000C0000
100C0200
380C0700
3C000E00
0C001C00
043F0800
00FFC000
01E1E000
0180E000
03807000
00000000
00000000
00000000
FFFFFFC0
FFFFFFC0
ENDCHAR
STARTCHAR 0031
ENCODING 49
SWIDTH 600 0
DWIDTH 30 0
BBX 30 29 0 -1
BITMAP
00030000
00030000
00030000
00030000
0C0301C0
0E0003C0
0F000780
070F8300
031FE200
00387000
00703800
00E01800
00C01C00
00C00C00
F8C00C7C
F8C00C7C
00C00C00
00E01C00
00603800
00787000
003FE000
030FC200
07000700
0F000380
0E0001C0
00030000
00030000
00030000
00030000
ENDCHAR
STARTCHAR 0032
ENCODING 50
SWIDTH 700 0
DWIDTH 35 0
BBX 29 27 3 2
BITMAP
00060000
00070000
00070000
00070000
0C060180
0E000380
0F000700
070F8600
003FE000
0070F000
00E03000
00C03800
01C01800
01C01C00
F1C01CF8
F1F01CF8
03FC1C00
071C3800
0E0FF800
1E0FF000
3801E000
3000E600
3000E700
3000E700
3801C380
1FFFC180
0FFF0000
ENDCHAR
STARTCHAR 0033
ENCODING 51
SWIDTH 820 0
DWIDTH 41 0
BBX 36 24 2 0
BITMAP
00000F8000
00001FE000
0000787000
0000303800
001F801C00
007FE00C00
00F0F00F80
01C0380FC0
03801800E0
03001C0070
07000F8030
1F000FE030
380000F030
7000003030
6000003870
60000018E0
E000001BC0
E000001B80
6000001800
6000003800
7000003000
380000F000
1FFFFFE000
07FFFF8000
ENDCHAR
STARTCHAR 0034
ENCODING 52
SWIDTH 400 0
DWIDTH 20 0
BBX 14 20 3 3
BITMAP
001C
001C
0038
1E38
3E70
3C7C
7C1C
7818
7030
FE20
FE20
1C40
3880
3800
3000
6000
6000
4000
8000
8000
ENDCHAR
STARTCHAR 0035
ENCODING 53
SWIDTH 320 0
DWIDTH 16 0
BBX 10 14 3 7
BITMAP
0300
0300
4300
4000
E000
E000
E000
4300
0780
0FC0
0FC0
0FC0
0FC0
0F80
ENDCHAR
STARTCHAR 0036
ENCODING 54
SWIDTH 400 0
DWIDTH 20 0
BBX 15 15 2 6
BITMAP
0180
0F80
1F80
3DC0
71C0
70E0
607E
E03E
601E
6006
600E
301C
3C38
1FF0
07C0
ENDCHAR
STARTCHAR 0037
ENCODING 55
SWIDTH 700 0
DWIDTH 35 0
BBX 29 23 3 0
BITMAP
00020000
00070000
00070000
00070000
0C070180
0E000380
0E000780
07000700
030F8600
003FE000
00707000
00E03800
00C01800
01C01C00
F9801CF8
F9801CF8
01C01C00
01C21800
00E73800
000F8000
001FC000
03F8FE00
03F07E00
ENDCHAR
STARTCHAR 0038
ENCODING 56
SWIDTH 700 0
DWIDTH 35 0
BBX 29 27 3 -4
BITMAP
00020000
00070000
00070000
00070000
0C070180
0E000380
0E000780
07000700
030F8600
003FE000
00707000
00E03800
00C01800
01C01C00
F9801CF8
F9801CF8
01C01C00
01C01800
00E03800
00000000
00000000
03F07E00
03FDFE00
001FC000
000F8000
00070000
00020000
ENDCHAR
STARTCHAR 0039
ENCODING 57
SWIDTH 700 0
DWIDTH 35 0
BBX 29 23 3 0
BITMAP
00060000
00070000
00070000
00070000
0C060180
0E000380
0E000780
07000700
030F8600
003FE000
00707000
00E03800
00C01800
01C01C00
F9801CF8
F9801CF8
01C01C00
00C01800
00000000
00000000
00000000
7FFFFFF0
7FFFFFF0
ENDCHAR
STARTCHAR 003A
ENCODING 58
SWIDTH 640 0
DWIDTH 32 0
BBX 28 29 2 0
BITMAP
003FF800
03FFFF00
07C00FC0
1E0001E0
1C000070
18000030
1C000070
1E0001E0
3FC00FC0
7BFFFF80
607FFF00
70000F00
3E007E00
7FFFF800
73FFC000
E000C000
7807C000
3FFF8000
07FC0000
30000000
70180000
70380000
3FF80000
0FE00000
00000000
00000000
18300000
1FF00000
0FE00000
ENDCHAR
STARTCHAR 003B
ENCODING 59
SWIDTH 520 0
DWIDTH 26 0
BBX 22 22 2 0
BITMAP
00FC00
03FF80
0F03C0
1E00E0
180070
380030
700038
608018
60E01C
60F81C
E07E1C
E07F0C
603C1C
60381C
603018
701038
381030
180070
1E00E0
0F03C0
03FF80
00FC00
ENDCHAR
STARTCHAR 003F
ENCODING 63
SWIDTH 520 0
DWIDTH 26 0
BBX 22 22 2 0
BITMAP
00FC00
03FF80
0F03C0
1E00E0
180070
380030
703038
603018
60301C
60F81C
E3F81C
E1FC0C
607C1C
600C1C
600218
700038
380030
180070
1E00E0
0F03C0
03FF80
00FC00
ENDCHAR
STARTCHAR 0041
ENCODING 65
SWIDTH 840 0
DWIDTH 42 0
BBX 38 29 2 0
BITMAP
0000030000
0000030000
0000030000
0000030000
000C0300C0
000E0001C0
0006000380
000607C300
00001FE000
001FB87000
007FF03800
00F0F01C00
01C0380C00
0380380C00
03001C0C7C
07000F8C7C
1F000FFC00
380000FC00
7000003800
6000003800
6000001800
E000001800
6000001980
60000019C0
70000039C0
70000030C0
380000F000
1FFFFFE000
07FFFF8000
ENDCHAR
STARTCHAR 0042
ENCODING 66
SWIDTH 1040 0
DWIDTH 52 0
BBX 47 33 3 -4
BITMAP
000000018000
000000018000
000000018000
000000018000
000002018060
0000070000E0
0000030001C0
00000303E180
0000000FF000
00000FDC3800
00003FF81C00
000078780E00
0000E01C0600
0001C00E0600
0001800E063E
00038007C63E
000F8007FE00
001C00003E00
003800001C00
003000000C00
000000000C00
000000000C00
1FFFFF000CC0
1FFFFF000CE0
000000001CE0
000000001860
000000007800
FFFFF3FFF000
FFFFF3FFC000
000000000000
000000000000
03FFFFC00000
03FFFFC00000
ENDCHAR
STARTCHAR 0043
ENCODING 67
SWIDTH 880 0
DWIDTH 44 0
BBX 38 24 3 -4
BITMAP
00000FC000
00003FF000
0000787800
0000E01C00
0000C01C00
0001C00E00
0001800600
00038007C0
000F8007F0
001C000038
003800001C
000000000C
000000000C
1FFFFF000C
1FFFFF000C
000000001C
0000000018
0000000078
FFFFF3FFF0
FFFFF3FFC0
0000000000
0000000000
03FFFFC000
03FFFFC000
ENDCHAR
STARTCHAR 0044
ENCODING 68
SWIDTH 980 0
DWIDTH 49 0
BBX 43 34 3 -5
BITMAP
000000180000
0000001C0000
0000001C0000
0000001C0000
000030180600
000030000E00
000038001E00
0000183E1800
000000FF8000
00007DE3C000
0001FF80C000
00038380E000
000701C06000
000E00E07000
000C00E073E0
001C006073E0
003C007F7000
00F8787FE000
0180FC03C000
0380CE00C000
00000E00E000
00000E00E000
FFFFFC00EE00
FFFFF800CE00
00000000C600
00000001C600
000000038000
FFFC3FFF0000
FFFE3FFC0000
000600000000
000700000000
006600000000
007E00000000
003C00000000
ENDCHAR
STARTCHAR 0045
ENCODING 69
SWIDTH 900 0
DWIDTH 45 0
BBX 35 25 6 -5
BITMAP
00007C0000
0001FF0000
0003838000
000701C000
000E00E000
000C00E000
001C006000
003C007E00
00F8007F00
01E0780380
0180FC01C0
03800E00E0
00000E00E0
FFFFFC00E0
FFFFF800E0
00000001C0
00000001C0
0000000380
FFFC3FFF00
FFFE3FFC00
0007000000
0007000000
0066000000
007E000000
003C000000
ENDCHAR
STARTCHAR 0046
ENCODING 70
SWIDTH 840 0
DWIDTH 42 0
BBX 38 32 2 -3
BITMAP
0000030000
0000030000
0000030000
0000030000
000C0300C0
000E0001C0
0006000380
000607C300
00001FE000
001FB87000
007FF03800
00F0F01C00
01C0380C00
0380380C00
03001C0C7C
07000F8C7C
1F000FFC00
380080FC00
7001803800
6001C03800
6030001800
E070001800
E078001980
60780019C0
70718039C0
7023C030C0
3803C0F000
1E07E3E000
0607E38000
0007E00000
0007E00000
0003C00000
ENDCHAR
STARTCHAR 0047
ENCODING 71
SWIDTH 680 0
DWIDTH 34 0
BBX 29 23 2 -3
BITMAP
001F8000
007FC000
00F0F000
01C03000
01801800
03801C00
03000C00
07000F80
1F000FE0
380080F0
70018038
60018018
60300018
E0700018
60780018
60788038
7021C038
3803C070
1E07E3E0
0607E380
0007E000
0007E000
0003C000
ENDCHAR
STARTCHAR 0048
ENCODING 72
SWIDTH 840 0
DWIDTH 42 0
BBX 38 37 2 -8
BITMAP
0000030000
0000030000
0000030000
0000030000
000E0300C0
000E0001C0
0006000380
0000030300
00001FE000
001FBFF000
007FF03800
00F9F01C00
01C0381C00
0380180C38
03801C0C7C
07000F0C7C
1F000FCC00
3F000FFC00
7800007800
7000003800
6000001800
E000001800
E000001900
60000019C0
70020039C0
7003007000
3E0001F000
1E703BE000
0620138000
0002000000
0003000000
0000000000
0070380000
0020300000
0000000000
0003000000
0003000000
ENDCHAR
STARTCHAR 0049
ENCODING 73
SWIDTH 680 0
DWIDTH 34 0
BBX 29 27 2 -7
BITMAP
001F8000
007FE000
00F0F000
01C03800
03801800
03801C00
07000F80
1F000FE0
380000F0
70000030
60000038
60000018
E0000018
E0000018
60000018
70030038
78030070
3C0001F0
1E2033E0
06203380
00030000
00030000
00000000
00203000
00203000
00030000
00030000
ENDCHAR
STARTCHAR 004A
ENCODING 74
SWIDTH 840 0
DWIDTH 42 0
BBX 38 38 2 -9
BITMAP
0000030000
0000030000
0000030000
0000030000
000C0300C0
000E0001C0
0006000380
000607C300
00001FE000
001FB87000
007FF03800
00F0F01C00
01C0380C00
0380380C00
03001C0C7C
07000F8C7C
1F000FFC00
380000FC00
7000003800
6000003800
6000001800
E000001800
E0318C1980
60398C19C0
70319C39C0
70739830C0
387398F000
1E633BE000
06633B8000
00E7300000
00E6300000
00C6700000
00CE700000
01CE600000
000C000000
000C000000
001C000000
001C000000
ENDCHAR
STARTCHAR 004B
ENCODING 75
SWIDTH 680 0
DWIDTH 34 0
BBX 29 30 2 -10
BITMAP
001F8000
007FC000
00F0F000
01C03000
01803800
03801C00
03001C00
07000F80
1F000FE0
380000F0
70000038
60000018
60000018
E0000018
60398C18
60319C38
70339838
38731870
1E733BE0
06633B80
00673000
00E63000
00C67000
00CE6000
01CE6000
008C0000
000C0000
001C0000
00180000
00180000
ENDCHAR
STARTCHAR 004C
ENCODING 76
SWIDTH 840 0
DWIDTH 42 0
BBX 38 37 2 -8
BITMAP
0000030000
0000030000
0000030000
0000030000
000C0300C0
000E0001C0
0006000380
0000000300
00001FE000
001FBFF000
007FF87800
00F9F01C00
01C0381C00
0380180C00
03801C0C7C
03000F0C7C
1F000FCC00
3F000FFC00
7800007800
7000003800
6000001800
E000001800
E010081800
60380C1980
70301C39C0
7030187080
3E0001F000
1E0301E000
0603018000
0067300000
00E0300000
00C0700000
0040200000
000C000000
000C000000
000C000000
000C000000
ENDCHAR
STARTCHAR 004D
ENCODING 77
SWIDTH 680 0
DWIDTH 34 0
BBX 29 28 2 -8
BITMAP
001F8000
007FE000
00F0F000
01C03800
03801800
03801C00
07000F80
1F000FE0
380000F0
70000038
60000038
60000018
E0000018
E0300C18
60380C18
70301C38
30301830
180300E0
0E0301C0
02633100
00E33000
00C07000
00C03000
00000000
000C0000
000C0000
000C0000
000C0000
ENDCHAR
STARTCHAR 004E
ENCODING 78
SWIDTH 840 0
DWIDTH 42 0
BBX 38 42 2 -13
BITMAP
0000030000
0000030000
0000030000
0000030000
000E0300C0
000E0001C0
0006000380
0000030300
00001FE000
001FBFF000
007FF83800
00F9F01C00
01C0381C00
0180180C00
03801C0C7C
03000F0C7C
1F000FCC00
3F000FFC00
3800007800
7000003800
6000001800
E000001800
E000001800
60060019C0
700E0039C0
701C603080
3C1CE0F000
1E38E7E000
0471C78000
00E38E0000
01C71C0000
01CE380000
038E700000
001CF00000
0838E00000
0C71C00000
0CE1800000
00E0000000
0046000000
0006000000
0300000000
0300000000
ENDCHAR
STARTCHAR 004F
ENCODING 79
SWIDTH 680 0
DWIDTH 34 0
BBX 29 32 2 -12
BITMAP
001F8000
007FE000
00E0F000
01C03800
03801800
03001C00
07000F80
1F000FE0
380000F0
70000038
60000038
60000018
E0000018
60060018
600E0038
700E6038
381C6070
1E38E3E0
0C71C7C0
00738F00
00E79E00
01C71C00
038E3800
011C7000
0038F000
0C38E000
0C71C000
00E18000
00C60000
00060000
03060000
03000000
ENDCHAR
STARTCHAR 0050
ENCODING 80
SWIDTH 840 0
DWIDTH 42 0
BBX 38 40 2 -11
BITMAP
0000030000
0000030000
0000030000
0000030000
000C0300C0
000E0001C0
0006000380
000607C300
00001FE000
001FB87000
007FF03800
00F0F01C00
01C0380C00
0180380C00
03801C0C7C
03001C0C7C
07000F8C00
1F000FFC00
380000FC00
7000003800
6000001800
6000001800
E000001800
60F18C1980
61F19C19C0
71E39838C0
3BC3987000
1FC33BE000
07833B8000
07F7300000
07E6300000
00E6700000
01CE600000
018E600000
038C000000
030C000000
021C000000
0618000000
0408000000
0800000000
ENDCHAR
STARTCHAR 0051
ENCODING 81
SWIDTH 680 0
DWIDTH 34 0
BBX 29 31 2 -11
BITMAP
001F8000
007FC000
00F0F000
01C07000
01803800
03801C00
03001C00
07000F80
1F000FE0
380000F0
70000038
60000018
60000018
E0000018
60F18C18
61F19C18
71E39838
3BE39870
1FC33BE0
07833B80
07F73000
07E63000
00E67000
01CE7000
018E6000
038C0000
030C0000
021C0000
06180000
04080000
08000000
ENDCHAR
STARTCHAR 0052
ENCODING 82
SWIDTH 840 0
DWIDTH 42 0
BBX 38 40 2 -11
BITMAP
0000030000
0000030000
0000030000
0000030000
000C0300C0
000E0001C0
0006000380
0000030300
00001FE000
001FBFF000
007FF87800
00F9F01C00
01C0381C00
0380180C00
03801C0C7C
07000F0C7C
1F000FCC00
3F000FFC00
7800007800
7000003800
6000001800
E000001800
E0F00C1800
61F00C1980
71E00C39C0
71E00C7080
3FC001F000
1FC303E000
0783038000
07F3300000
07E0300000
00E0300000
01C0300000
0184000000
038E000000
030C000000
020C000000
0600000000
0400000000
0800000000
ENDCHAR
STARTCHAR 0053
ENCODING 83
SWIDTH 680 0
DWIDTH 34 0
BBX 29 31 2 -11
BITMAP
001F8000
007FC000
00F0F000
01C07000
01803800
03801C00
03001C00
07000F80
1F000FE0
38000070
70000038
60000018
E0000018
60F00C18
61F00C18
71E00C38
3BE00C70
3FC301F0
0F8303E0
07F31380
07E33000
07E03000
01C03000
01C40000
018E0000
030E0000
030C0000
02000000
04000000
04000000
08000000
ENDCHAR
STARTCHAR 0054
ENCODING 84
SWIDTH 840 0
DWIDTH 42 0
BBX 38 39 2 -10
BITMAP
0000030000
0000030000
0000030000
0000030000
000E0300C0
000E0001C0
0006000380
0000030300
00001FE000
001FBFF000
007FF83800
00F9F01C00
01C0381C00
0380180C00
03801C0C7C
07000F0C7C
1F000FCC00
3F000FFC00
7800007800
7000003800
6000001800
E000001800
E0118C1900
60398C19C0
70319C39C0
7033987000
3E7399F000
1E733BE000
06633B8000
0067300000
00E6300000
0006000000
008E600000
01CE600000
008C600000
0000000000
0000000000
0018000000
0018000000
ENDCHAR
STARTCHAR 0055
ENCODING 85
SWIDTH 680 0
DWIDTH 34 0
BBX 29 29 2 -9
BITMAP
001F8000
007FE000
00F0F000
01C03800
03801800
03801C00
07000F80
1F000FE0
380000F0
70000030
60000038
60000018
E0000018
E0318C18
60318C18
60319C38
70739830
387398F0
1E633BE0
06633B80
00E73000
00060000
00060000
008E6000
00CE6000
00000000
00000000
00180000
00180000
ENDCHAR
STARTCHAR 0056
ENCODING 86
SWIDTH 840 0
DWIDTH 42 0
BBX 38 40 2 -11
BITMAP
0000030000
0000030000
0000030000
0000030000
000E0300C0
000E0001C0
0006000380
0000030300
00001FE000
001FBFF000
007FF83800
00F9F01C00
01C0780C00
0380180C38
03801C0C7C
03000F0C7C
1F000FCC00
3F000FFC00
7800007800
7000003800
6000001800
E000001800
E010081900
60381C19C0
70301C39C0
7030187000
3C3019F000
1E0303E000
0663338000
0067300000
0006000000
00C0600000
00C4700000
01CE600000
01C0600000
0088600000
001C000000
001C000000
0018000000
0018000000
ENDCHAR
STARTCHAR 0057
ENCODING 87
SWIDTH 680 0
DWIDTH 34 0
BBX 29 31 2 -11
BITMAP
001F8000
007FE000
00F0F000
01C03800
03801800
03001C00
07000F80
1F000FE0
380000F0
70000030
60000038
60000018
E0000018
E0100C18
60381C18
70301C38
70301830
383018F0
1E0303E0
06633380
00673000
00C66000
00C07000
01CC6000
01CC6000
00806000
00080000
001C0000
001C0000
00180000
00180000
ENDCHAR
STARTCHAR 0058
ENCODING 88
SWIDTH 840 0
DWIDTH 42 0
BBX 38 37 2 -8
BITMAP
0000030000
0000030000
0000030000
0000030000
000C0300C0
000E0001C0
000E000380
00060FC300
00001FE000
001FB87000
007FF03800
00F0F01C00
01C0380C00
0380380C00
03001C0C7C
07000F8C7C
1F000FFC00
380000FC00
7000003800
6000003800
6003E01800
E003C01800
E007C01980
60078019C0
70078039C0
700F0030C0
380F00F000
1E0FE3E000
061FC38000
0003800000
0003000000
0007000000
0006000000
000C000000
0008000000
0008000000
0010000000
ENDCHAR
STARTCHAR 0059
ENCODING 89
SWIDTH 680 0
DWIDTH 34 0
BBX 29 28 2 -8
BITMAP
001F8000
007FE000
00F0F000
01C03800
03801800
03801C00
07000F80
1F000FE0
380000F0
70000030
60000038
6003E018
E003C018
E007C018
60078018
60078038
700F0030
380F00F0
1E0FE3E0
061FC380
00038000
00030000
00070000
00060000
000C0000
00080000
00080000
00100000
ENDCHAR
STARTCHAR 005A
ENCODING 90
SWIDTH 800 0
DWIDTH 40 0
BBX 34 24 3 -4
BITMAP
0003E00000
000FF80000
003C1E0000
00300E0000
0070070000
0060030000
01E003F000
03E003F800
0700001C00
0E00000E00
1C00000700
0000000000
0000000000
1FFFFFFE00
1FFFFFFE00
0000000000
0000000000
0000000000
FFFFFFF000
FFFFFFF000
0000000000
0000000000
03FFFFFFC0
03FFFFFFC0
ENDCHAR
STARTCHAR 005B
ENCODING 91
SWIDTH 300 0
DWIDTH 15 0
BBX 9 15 3 1
BITMAP
1800
3C00
7E00
FF00
FB80
D980
1800
1800
1800
1800
1800
1800
1800
1800
1800
ENDCHAR
STARTCHAR 005C
ENCODING 92
SWIDTH 680 0
DWIDTH 34 0
BBX 29 20 2 0
BITMAP
001F8000
007FC000
00F0F000
01C07000
01803800
03801C00
03001C00
07000F80
1F000FE0
380000F0
70030038
60078018
600FC018
E01FE018
603B7018
60032038
70030038
38030070
1E0303E0
06030380
ENDCHAR
STARTCHAR 005D
ENCODING 93
SWIDTH 300 0
DWIDTH 15 0
BBX 9 15 3 1
BITMAP
1800
1C00
1C00
1C00
1C00
1C00
1C00
1C00
1C00
DD80
FF80
FF00
7E00
3C00
1800
ENDCHAR
STARTCHAR 0061
ENCODING 97
SWIDTH 700 0
DWIDTH 35 0
BBX 30 22 2 0
BITMAP
000007C0
00001FE0
001FB870
007FF038
00F0F01C
01C0380C
0380180C
03001C0C
07000F8C
1F000FFC
380000FC
70000038
60000038
60000018
E0000018
E0000018
60000018
60000038
70000030
380000F0
1FFFFFE0
07FFFF80
ENDCHAR
STARTCHAR 0062
ENCODING 98
SWIDTH 900 0
DWIDTH 45 0
BBX 39 26 3 -4
BITMAP
00000003E0
0000000FF0
00000FDC3C
00003FF81C
000078780E
0000E01C06
0001C00E06
0001C00E06
00038007C6
000F8007FE
001C00003E
003800001C
003000000C
000000000C
000000000C
1FFFFF000C
1FFFFF000C
000000001C
0000000038
0000000078
FFFFF3FFF0
FFFFF3FFC0
0000000000
0000000000
03FFFFC000
03FFFFC000
ENDCHAR
STARTCHAR 0063
ENCODING 99
SWIDTH 900 0
DWIDTH 45 0
BBX 40 27 3 -4
BITMAP
00000003E0
0000000FE0
0000001E60
00000FF860
00003FF070
0000787870
0000E01C38
0001C00E1E
0001C00E0F
00038007C6
000F8007FE
001C00003C
003800001C
003800001C
000000000C
000000000C
1FFFFF000C
1FFFFF000C
000000001C
0000000018
0000000078
FFFFF3FFF0
FFFFF3FFC0
0000000000
0000000000
03FFFFC000
03FFFFC000
ENDCHAR
STARTCHAR 0064
ENCODING 100
SWIDTH 820 0
DWIDTH 41 0
BBX 36 27 3 -5
BITMAP
0000003E00
000000FF80
0000FDE3C0
0003FF80E0
000783C060
000E01C060
000C00E070
001C006070
003C007E70
00F8007F60
01E07803E0
01C0FC01C0
0380CE00C0
00000E00E0
00000E00E0
FFFFFC00E0
FFFFF800E0
00000001C0
00000001C0
0000000380
FFFC3FFF00
FFFE3FFC00
0006000000
0007000000
0066000000
007E000000
003C000000
ENDCHAR
STARTCHAR 0065
ENCODING 101
SWIDTH 840 0
DWIDTH 42 0
BBX 36 28 3 -5
BITMAP
0000003E00
000000FF00
000001E700
00007D8700
0001FF8700
0003838300
000701C380
000E00E3C0
000C00E1F0
001C0060F0
003C007E70
00F8007FE0
01E07803C0
0180FC01C0
0380CE00E0
00000E00E0
FFFFFC00E0
FFFFF800E0
00000001C0
00000001C0
0000000380
FFFC3FFF00
FFFE3FFC00
0006000000
0007000000
0066000000
007E000000
003C000000
ENDCHAR
STARTCHAR 0066
ENCODING 102
SWIDTH 700 0
DWIDTH 35 0
BBX 30 25 2 -3
BITMAP
000007C0
00001FE0
001FB878
007FF038
00F0F01C
01C0380C
0380180C
03001C0C
07000F8C
1F000FFC
380080FC
70018038
6001C038
60208018
E0700018
E0780018
60780018
60718038
7003C030
3803C0F0
1E07E3E0
0607E380
0007E000
0007E000
0003C000
ENDCHAR
STARTCHAR 0067
ENCODING 103
SWIDTH 700 0
DWIDTH 35 0
BBX 31 26 2 -3
BITMAP
000007C0
00001FC0
000038C0
001FF0C0
007FE0C0
00F0F0E0
01C07870
01803878
03801C3E
03001C1E
07000F8C
1F000FFC
380080F8
7001C038
60018018
60300018
E0700018
60780018
60788038
7021C038
3803C070
1E07E3E0
0607E380
0007E000
0007E000
0003C000
ENDCHAR
STARTCHAR 0068
ENCODING 104
SWIDTH 700 0
DWIDTH 35 0
BBX 30 29 2 -7
BITMAP
000007C0
00001FE0
001FB878
007FF038
00F0F01C
01C0380C
0380180C
03001C0C
07000F8C
1F000FFC
380000FC
70000038
60000038
60000018
E0000018
60000018
60000018
70030038
38030070
1E2033E0
0E2033C0
02000300
00030000
00030000
00000000
00203000
00203000
00030000
00030000
ENDCHAR
STARTCHAR 0069
ENCODING 105
SWIDTH 700 0
DWIDTH 35 0
BBX 31 30 2 -7
BITMAP
000007C0
00001FC0
000038C0
001FF0C0
007FE0E0
00F0F0E0
01C03870
0380183C
03001C1E
07000F8C
1F000FFC
380000F8
70000038
60000038
60000018
E0000018
60000018
60000018
70030038
70030030
3C0000F0
1E2033E0
06203380
00030000
00030000
00000000
00203000
00203000
00030000
00030000
ENDCHAR
STARTCHAR 006A
ENCODING 106
SWIDTH 700 0
DWIDTH 35 0
BBX 30 31 2 -9
BITMAP
000007C0
00001FE0
001FB878
007FF038
00F0F01C
01C0380C
0380180C
03001C0C
07000F8C
1F000FFC
380000FC
70000038
60000038
60000018
E0000018
E0118C18
60398C18
60319C38
70339830
387398F0
1E633BE0
06633B80
00E73000
00E63000
00C67000
00CE7000
01CE6000
000C0000
000C0000
001C0000
001C0000
ENDCHAR
STARTCHAR 006B
ENCODING 107
SWIDTH 700 0
DWIDTH 35 0
BBX 31 32 2 -9
BITMAP
000007C0
00001FC0
000038C0
001FF0C0
007FE0E0
00F0F0E0
01C03870
0380183E
03001C1E
07000F8C
1F000FFC
380000F8
70000038
60000038
60000018
E0000018
E0118C18
60399C18
60319C38
70339830
387398F0
1E633BE0
06633380
00E73000
00E67000
00C67000
00CE6000
01CE6000
000C0000
000C0000
001C0000
001C0000
ENDCHAR
STARTCHAR 006C
ENCODING 108
SWIDTH 700 0
DWIDTH 35 0
BBX 30 30 2 -8
BITMAP
000007C0
00001FE0
001FB870
007FF038
00F0F01C
01C0380C
0380180C
03001C0C
07000F8C
1F000FFC
380000FC
70000038
60000038
60000018
E0000018
E0300C18
60380C18
70301C38
70301830
380300F0
1E0303E0
06633380
00E73000
00C03000
00007000
00000000
000C0000
000C0000
000C0000
000C0000
ENDCHAR
STARTCHAR 006D
ENCODING 109
SWIDTH 700 0
DWIDTH 35 0
BBX 31 30 2 -7
BITMAP
000007E0
00001FC0
00003CC0
001FF0C0
007FE0E0
00F0F0E0
01C03870
0380183E
03001C1E
07000F8C
1F000FFC
380000F8
70000038
60000038
60000018
E0000018
E0300C18
60380C18
70301C38
70301870
380303F0
1E0303E0
06633380
00E73000
00E03000
00C07000
000C0000
000C0000
000C0000
000C0000
ENDCHAR
STARTCHAR 006E
ENCODING 110
SWIDTH 700 0
DWIDTH 35 0
BBX 30 35 2 -13
BITMAP
00000FC0
001FBFE0
007FF078
00F0F038
01C0781C
0180380C
03801C0C
03001C0C
07000F8C
1F000FFC
380000FC
70000038
60000038
60000018
E0000018
E0000018
60060018
600E0038
701C6030
381CE0F0
1E39E3E0
0C71C780
00E38E00
01C71C00
01CE3800
039C7000
013CE000
0C38E000
0C71C000
00E18000
00C00000
00060000
00060000
03000000
03000000
ENDCHAR
STARTCHAR 006F
ENCODING 111
SWIDTH 700 0
DWIDTH 35 0
BBX 31 35 2 -12
BITMAP
000007C0
00001FC0
000038C0
001FF0C0
007FE0E0
00F0F0E0
01C03870
0380183E
03001C1E
07000F8C
1F000FFC
380000F8
70000038
60000038
60000018
E0000018
60060018
600E0038
700E6038
381C6070
1E38E3E0
0C71C7C0
00738E00
00E71C00
01CF3800
038E7800
039C7000
0038E000
0C71C000
0CE18000
00E00000
00C00000
00060000
03060000
03000000
ENDCHAR
STARTCHAR 0070
ENCODING 112
SWIDTH 700 0
DWIDTH 35 0
BBX 30 33 2 -11
BITMAP
000007C0
00001FE0
001FB878
007FF038
00F0F01C
01C0380C
0380180C
03001C0C
07000F8C
1F000FFC
380000FC
70000038
60000038
60000018
E0000018
E0F18C18
61F18C18
61E19C38
71E39830
3BC398F0
1FC33BE0
07833B80
07F73000
07E63000
00E67000
01CE7000
018E6000
038C0000
030C0000
021C0000
041C0000
04080000
08000000
ENDCHAR
STARTCHAR 0071
ENCODING 113
SWIDTH 700 0
DWIDTH 35 0
BBX 31 34 2 -11
BITMAP
000007C0
00001FC0
000038C0
001FF0C0
007FE0C0
00F0F0E0
01C07870
01803878
03801C3E
03001C1E
07000F8C
1F000FFC
380000F8
70000038
60000018
60000018
E0000018
60F18C18
61F19C18
71E39C38
3BC39870
1FC33BE0
07833B80
07F73000
07E63000
00E67000
01CE6000
018E6000
038C0000
030C0000
021C0000
06180000
04080000
08000000
ENDCHAR
STARTCHAR 0072
ENCODING 114
SWIDTH 700 0
DWIDTH 35 0
BBX 30 33 2 -11
BITMAP
000007C0
00001FE0
001FB870
007FF038
00F0F01C
01C0380C
0380180C
03001C0C
07000F8C
1F000FFC
380000FC
70000038
60000038
60000018
E0000018
60F00C18
61F00C18
71E00C38
3BE00C70
1FC303F0
0F8303E0
07F33380
07E33000
07E03000
01C03000
01CC0000
018E0000
030C0000
030C0000
02000000
04000000
04000000
08000000
ENDCHAR
STARTCHAR 0073
ENCODING 115
SWIDTH 700 0
DWIDTH 35 0
BBX 31 34 2 -11
BITMAP
000007C0
00001FC0
00003CC0
001FF0C0
007FE0C0
00F0F0E0
01C07870
01803878
03801C3E
03001C1E
07000F8C
1F000FFC
38000078
70000038
60000018
E0000018
60F00C18
61F00C18
71E00C38
3BE00C70
3FC301F0
0F8303E0
07F31380
07E33000
07E03000
01C03000
01C40000
018E0000
030E0000
030C0000
02000000
04000000
04000000
08000000
ENDCHAR
STARTCHAR 0074
ENCODING 116
SWIDTH 700 0
DWIDTH 35 0
BBX 30 31 2 -9
BITMAP
000007C0
00001FE0
001FB878
007FF038
00F0F01C
01C0380C
0380180C
03001C0C
07000F8C
1F000FFC
380000FC
70000038
60000038
60000018
E0000018
E0318C18
60399C18
60319C38
70739830
387398F0
1E633BE0
06673380
00E73000
00060000
00060000
00CE6000
00CE6000
00000000
00000000
00180000
00180000
ENDCHAR
STARTCHAR 0075
ENCODING 117
SWIDTH 700 0
DWIDTH 35 0
BBX 31 32 2 -9
BITMAP
000007C0
00001FC0
00003CC0
001FF0C0
007FE0E0
00F0F0E0
01C03870
0380183C
03001C1E
07000F8C
1F000FFC
380000F8
70000038
60000038
60000018
E0000018
E0318C18
60399C18
60319C38
70739830
387318F0
1E633BE0
06673380
00E73000
00060000
00060000
008E6000
00CC6000
00000000
00000000
00180000
00180000
ENDCHAR
STARTCHAR 0076
ENCODING 118
SWIDTH 700 0
DWIDTH 35 0
BBX 30 33 2 -11
BITMAP
00000300
00001FE0
001FBFF0
007FF838
00F9F01C
01C0380C
0380180C
03801C0C
07000F0C
1F000FCC
3F000FFC
78000078
70000038
60000018
E0000018
E0100818
60381C18
70301C38
70301870
3E3019F0
1E0303E0
06633380
00673000
00060000
00C06000
00C47000
01CE6000
01C06000
00886000
001C0000
001C0000
00180000
00180000
ENDCHAR
STARTCHAR 0077
ENCODING 119
SWIDTH 700 0
DWIDTH 35 0
BBX 31 34 2 -11
BITMAP
000007C0
00001FC0
00003CC0
001FF0C0
007FE0E0
00F9F0E0
01C03870
0380183C
03801C1E
07000F0C
1F000FDC
3F000FF8
78000078
70000038
60000018
E0000018
E0100818
60381C18
70301C38
70301870
3E3019F0
1E0303E0
06633380
00673000
00060000
00C06000
00C47000
01CE6000
01C06000
00886000
001C0000
001C0000
00180000
00180000
ENDCHAR
STARTCHAR 0078
ENCODING 120
SWIDTH 700 0
DWIDTH 35 0
BBX 30 30 2 -8
BITMAP
00000FC0
00001FE0
001FB870
007FF038
00F0F01C
01C0380C
0380180C
03001C0C
07000F8C
1F000FFC
380000FC
70000038
60000038
6003E018
E003C018
E007C018
60078018
60078038
700F0030
380F00F0
1E0FE3E0
061FC380
00038000
00030000
00070000
00060000
000C0000
00080000
00080000
00100000
ENDCHAR
STARTCHAR 0079
ENCODING 121
SWIDTH 700 0
DWIDTH 35 0
BBX 31 31 2 -8
BITMAP
000007C0
00001FC0
000038C0
001FF0C0
007FE0E0
00F0F0E0
01C03870
0380183E
03001C1E
07000F8C
1F000FFC
380000F8
70000038
60000038
6003E018
E003C018
E007C018
60078018
60078038
700F0030
380F00F0
1E0FE3E0
061FC380
00038000
00030000
00070000
00060000
000C0000
00080000
00080000
00100000
ENDCHAR
STARTCHAR 007A
ENCODING 122
SWIDTH 920 0
DWIDTH 46 0
BBX 40 33 3 -4
BITMAP
0000006000
000000E000
000000E000
000000E000
0001806030
0001C00070
0001C000F0
0000C1F0E0
000007FC00
0003FF0E00
000FFE0700
003C1E0300
00300F0380
0070070380
006003019F
01E003F39F
07E003FF80
0F00001F00
0E00000E00
1C00000700
0000000000
0000000000
1FFFFFFE70
1FFFFFFE70
0000000030
0000000010
0000000000
FFFFFFF000
FFFFFFF000
0000000000
0000000000
03FFFFFFC0
03FFFFFFC0
ENDCHAR
STARTCHAR 007B
ENCODING 123
SWIDTH 400 0
DWIDTH 20 0
BBX 15 17 2 0
BITMAP
0200
0380
03C0
07C0
1FE0
3FC0
7380
7300
6000
E006
E006
6006
700E
701C
3C38
1FF0
07E0
ENDCHAR
STARTCHAR 007D
ENCODING 125
SWIDTH 320 0
DWIDTH 16 0
BBX 11 17 2 0
BITMAP
0100
0380
01C0
07E0
1FE0
3DC0
7380
7100
6000
E000
E000
6000
6000
7000
3C00
1F80
0780
ENDCHAR
STARTCHAR 00A0
ENCODING 160
SWIDTH 600 0
DWIDTH 30 0
BBX 0 0 0 0
BITMAP
ENDCHAR
STARTCHAR 00A1
ENCODING 161
SWIDTH 260 0
DWIDTH 13 0
BBX 9 8 2 13
BITMAP
1E00
7F00
6300
6180
E180
6300
7F00
1E00
ENDCHAR
STARTCHAR 00B7
ENCODING 183
SWIDTH 520 0
DWIDTH 26 0
BBX 22 22 2 0
BITMAP
00FC00
03FF80
0F03C0
1E00E0
180070
380038
700038
618018
60E01C
60F81C
E0FE0C
E0FF0C
60F81C
60E01C
718018
700038
380038
180070
1E00E0
0F03C0
03FF80
00FE00
ENDCHAR
STARTCHAR 00BF
ENCODING 191
SWIDTH 520 0
DWIDTH 26 0
BBX 22 22 2 0
BITMAP
00FC00
03FF80
0F03C0
1E00E0
180070
380038
700038
618618
60FC1C
60FC1C
E07C0C
E0780C
60381C
60301C
703018
701038
380038
180070
1E00E0
0F03C0
03FF80
00FE00
ENDCHAR
STARTCHAR 2000
ENCODING 8192
SWIDTH 340 0
DWIDTH 17 0
BBX 0 0 0 0
BITMAP
ENDCHAR
STARTCHAR 2001
ENCODING 8193
SWIDTH 660 0
DWIDTH 33 0
BBX 0 0 0 0
BITMAP
ENDCHAR
STARTCHAR 2002
ENCODING 8194
SWIDTH 340 0
DWIDTH 17 0
BBX 0 0 0 0
BITMAP
ENDCHAR
STARTCHAR 2003
ENCODING 8195
SWIDTH 660 0
DWIDTH 33 0
BBX 0 0 0 0
BITMAP
ENDCHAR
STARTCHAR 2004
ENCODING 8196
SWIDTH 220 0
DWIDTH 11 0
BBX 0 0 0 0
BITMAP
ENDCHAR
STARTCHAR 2005
ENCODING 8197
SWIDTH 160 0
DWIDTH 8 0
BBX 0 0 0 0
BITMAP
ENDCHAR
STARTCHAR 2006
ENCODING 8198
SWIDTH 120 0
DWIDTH 6 0
BBX 0 0 0 0
BITMAP
ENDCHAR
STARTCHAR 2007
ENCODING 8199
SWIDTH 120 0
DWIDTH 6 0
BBX 0 0 0 0
BITMAP
ENDCHAR
STARTCHAR 2008
ENCODING 8200
SWIDTH 80 0
DWIDTH 4 0
BBX 0 0 0 0
BITMAP
ENDCHAR
STARTCHAR 2009
ENCODING 8201
SWIDTH 140 0
DWIDTH 7 0
BBX 0 0 0 0
BITMAP
ENDCHAR
STARTCHAR 200A
ENCODING 8202
SWIDTH 40 0
DWIDTH 2 0
BBX 0 0 0 0
BITMAP
ENDCHAR
STARTCHAR 2013
ENCODING 8211
SWIDTH 320 0
DWIDTH 16 0
BBX 12 11 2 3
BITMAP
0020
0070
00E0
01C0
6380
E700
EE00
FC00
F800
FF00
7F00
ENDCHAR
STARTCHAR 2014
ENCODING 8212
SWIDTH 320 0
DWIDTH 16 0
BBX 11 11 3 3
BITMAP
1FE0
1FE0
03E0
07E0
0FE0
1EE0
3C60
7800
F000
E000
8000
ENDCHAR
STARTCHAR 2018
ENCODING 8216
SWIDTH 300 0
DWIDTH 15 0
BBX 11 23 2 0
BITMAP
0E00
1F00
1980
1980
1980
1980
1980
1D80
1D80
1D80
1D80
1D80
1D80
3D80
35C0
6E60
5F60
DF60
5F60
6E60
70C0
3F80
0F00
ENDCHAR
STARTCHAR 201C
ENCODING 8220
SWIDTH 300 0
DWIDTH 15 0
BBX 11 23 2 0
BITMAP
0E00
1F00
1980
1980
1980
1980
1980
1980
1980
1980
1980
1980
1980
3980
31C0
6060
4060
C060
4060
6060
70C0
3F80
0F00
ENDCHAR
STARTCHAR 201D
ENCODING 8221
SWIDTH 300 0
DWIDTH 15 0
BBX 5 13 5 3
BITMAP
20
20
20
20
20
20
20
20
70
F8
F8
F8
70
ENDCHAR
STARTCHAR 2022
ENCODING 8226
SWIDTH 680 0
DWIDTH 34 0
BBX 29 20 2 0
BITMAP
001F8000
007FC000
00F0F000
01C07000
01803800
03801C00
03001C00
07000F80
1F000FE0
380000F0
70030038
60030018
60030018
E0030018
60030018
603B7038
701FE038
380FC070
1E0783E0
06030380
ENDCHAR
STARTCHAR 2026
ENCODING 8230
SWIDTH 720 0
DWIDTH 36 0
BBX 31 11 3 4
BITMAP
1FFFFF00
1FFFFF00
00000000
00000000
FFFFF3FE
FFFFF3FE
00000000
00000000
00000000
03FFFFC0
03FFFFC0
ENDCHAR
STARTCHAR 202F
ENCODING 8239
SWIDTH 140 0
DWIDTH 7 0
BBX 0 0 0 0
BITMAP
ENDCHAR
STARTCHAR 2039
ENCODING 8249
SWIDTH 580 0
DWIDTH 29 0
BBX 25 21 2 0
BITMAP
1C000000
3F07FF80
6307FF80
61860000
E1860000
63060000
7F060000
1E060000
00060000
0007FC00
0007FC00
00060000
00060000
00060000
00060000
00060000
00060000
00060000
00060000
00060000
00060000
ENDCHAR
STARTCHAR 203A
ENCODING 8250
SWIDTH 580 0
DWIDTH 29 0
BBX 24 21 2 0
BITMAP
1E01F8
7F07FE
63078F
618E03
E18C03
631C00
7F1C00
1E1C00
001C00
001C00
001C00
001C00
001C00
001C00
001C00
001C00
000C03
000E03
00070F
0003FE
0001F8
ENDCHAR
STARTCHAR 205F
ENCODING 8287
SWIDTH 160 0
DWIDTH 8 0
BBX 0 0 0 0
BITMAP
ENDCHAR
STARTCHAR E000
ENCODING 57344
SWIDTH 420 0
DWIDTH 21 0
BBX 22 22 0 0
BITMAP
FFFFFC
FFFFFC
FFFFFC
FFFFFC
FFFFFC
FFFFFC
FFFFFC
FFFFFC
FFFFFC
FFFFFC
FFFFFC
FFFFFC
FFFFFC
FFFFFC
FFFFFC
FFFFFC
FFFFFC
FFFFFC
FFFFFC
FFFFFC
FFFFFC
FFFFFC
ENDCHAR
ENDFONT
